<svg preserveAspectRatio="none" width="100%" height="100%" overflow="visible" style="display: block;" viewBox="0 0 18 18" fill="none" xmlns="http://www.w3.org/2000/svg">
<path id="Vector" d="M15.6688 10.0818H6.78947L7.27231 8.69187H16.1517L15.6688 10.0818ZM0.000900819 15.9965C0.000900819 17.2245 0.740473 18 1.99531 18C5.59859 18 9.20187 18 12.8051 18C14.06 18 14.832 17.4833 15.2824 16.3195C16.022 14.4454 17.2453 10.3732 17.856 8.40139C18.274 7.33447 17.7596 6.52727 16.6012 6.52727C13.3844 6.52727 10.1666 6.52727 6.91739 6.52727C6.14539 6.52727 5.82379 6.75351 5.53373 7.46478C4.7293 9.4683 3.60328 13.7993 2.79884 15.8028C2.67003 16.0933 2.54121 16.3521 2.28448 16.5458C2.05927 16.7078 1.80164 16.8046 1.5449 16.6752C1.28817 16.5458 1.19088 16.287 1.19088 15.9965C1.19088 12.2799 1.19088 5.78342 1.19088 2.06686L1.80254 1.42074L3.28258 2.71389L4.82659 1.16284L6.37059 2.61706L7.97945 1.19542L9.65228 2.74647L11.2611 1.22709L12.7412 2.74647V5.49384L13.9636 5.52642V2.45599L11.2936 0L9.58832 1.45423L7.97945 0L6.43545 1.45423L4.82659 0L3.21773 1.45423L1.60886 0L0 1.45423C0 1.45423 0 8.50002 0 10.3741C0 12.2483 0 14.1233 0 15.9974L0.000900819 15.9965ZM14.8968 13.0229H5.88865L6.30663 11.7297H15.2184L14.8968 13.0229Z" fill="var(--fill-0, white)"/>
</svg>
