<svg preserveAspectRatio="none" width="100%" height="100%" overflow="visible" style="display: block;" viewBox="0 0 18 18" fill="none" xmlns="http://www.w3.org/2000/svg">
<path id="Vector" d="M9 18C4.05 18 0 13.9824 0 9C0 4.0176 4.05 0 9 0C13.95 0 18 4.0176 18 9C18 13.9824 13.9824 18 9 18ZM15.1389 9C15.1389 5.625 12.4065 2.8611 9 2.8611C5.5935 2.8611 2.8926 5.625 2.8926 9C2.8926 12.375 5.625 15.1389 9 15.1389C12.375 15.1389 15.1389 12.375 15.1389 9ZM10.7361 1.3176C10.1898 1.1889 9 1.125 9 1.125V2.2176C9 2.2176 10.0287 2.2815 10.5111 2.3787L10.7361 1.3176ZM8.9037 15.75C8.3574 15.7824 8.0676 15.7176 7.5861 15.6213L7.1685 16.65C7.7796 16.875 8.3574 16.9074 9.0009 16.875L8.9046 15.75H8.9037ZM15.7176 4.8537C15.3963 4.3713 14.6565 3.5361 14.6565 3.5361L13.8852 4.3074C13.8852 4.3074 14.5278 5.0463 14.8176 5.4648L15.7176 4.8537ZM4.1463 13.725C3.7287 13.3713 3.5676 13.1139 3.3102 12.6963L2.2815 13.1139C2.5704 13.6926 2.9241 14.1426 3.4065 14.5926L4.1454 13.725H4.1463ZM16.6824 10.7676C16.8111 10.2213 16.875 9 16.875 9H15.7824C15.7824 9 15.7185 10.0287 15.6213 10.5111L16.6824 10.7685V10.7676ZM2.25 8.9037C2.2176 8.3574 2.2824 8.0676 2.3787 7.5861L1.35 7.1685C1.125 7.7796 1.0926 8.3574 1.125 9.0009L2.25 8.9046V8.9037ZM13.1463 15.75C13.6287 15.4287 14.4639 14.6889 14.4639 14.6889L13.6926 13.9176C13.6926 13.9176 12.9537 14.5602 12.5352 14.85L13.1463 15.75ZM4.275 4.1787C4.6287 3.7611 4.8861 3.6 5.3037 3.3426L4.8861 2.3139C4.3074 2.6028 3.8574 2.9565 3.4074 3.4389L4.275 4.1778V4.1787ZM14.2389 10.4787C14.3676 10.0287 14.175 9.6426 13.7565 9.5148C13.4676 9.4185 13.1139 9.5472 12.9204 9.9009C12.8565 9.8685 11.1843 9.2583 10.3167 8.9046C10.3491 8.5185 10.0917 8.1657 9.7704 7.9722C10.0593 7.1046 10.4778 5.2398 10.4778 5.1435C10.7991 5.1759 11.1852 4.9509 11.2815 4.6611C11.4102 4.3074 11.2176 3.825 10.8639 3.7287L10.9278 3.7611C10.5741 3.6324 10.0917 3.825 9.9639 4.2435C9.8676 4.5324 9.9963 4.8861 10.2528 5.0796C10.2204 5.1435 9.5139 6.8796 9.2241 7.812C8.838 7.7796 8.4528 7.9731 8.1954 8.2944C7.3917 8.037 5.5917 7.6194 5.4315 7.5555C5.4639 7.2342 5.2389 6.8481 4.9491 6.7518C4.5954 6.6231 4.1778 6.8157 4.0167 7.1055C3.8556 7.3953 3.9528 7.9731 4.3704 8.1342C4.6593 8.2305 5.0778 8.1342 5.238 7.8453C5.3019 7.8777 7.0704 8.5842 7.938 8.9379C7.8741 9.3879 8.0667 9.774 8.4519 10.0305C8.163 11.1231 7.9056 12.5379 7.8408 12.6981C7.5195 12.6657 7.1334 12.8907 7.0371 13.1805C6.9084 13.5342 7.0371 13.9842 7.5195 14.1444C8.0019 14.3046 8.3556 14.0805 8.4834 13.662C8.5797 13.3731 8.451 13.0194 8.0973 12.8259C8.1297 12.762 8.7084 11.0898 9.0612 10.1898C9.5751 10.1574 9.9612 10.0287 10.0899 9.6759C11.0223 9.9333 12.726 10.3509 12.7899 10.3833C12.7575 10.7046 13.0473 10.9296 13.3362 11.0259C13.5936 11.0583 14.0751 10.8972 14.2362 10.4796L14.2389 10.4787Z" fill="var(--fill-0, white)"/>
</svg>
