<svg preserveAspectRatio="none" width="100%" height="100%" overflow="visible" style="display: block;" viewBox="0 0 17.9982 18" fill="none" xmlns="http://www.w3.org/2000/svg">
<path id="Vector" d="M8.5761 1.54003C8.6508 1.54003 8.7237 1.54904 8.7867 1.56526L17.3007 3.61802C17.703 3.71715 17.9982 4.0758 17.9982 4.50383C17.9982 4.57772 17.9892 4.64981 17.9739 4.71199L14.9427 17.3142C14.8428 17.708 14.4864 18 14.0616 18C13.9851 18 13.9113 17.9901 13.8465 17.9739L5.3946 15.9355L5.3271 15.9193C4.9302 15.822 4.635 15.4633 4.635 15.0353C4.635 14.9614 4.644 14.8893 4.6593 14.8271L7.6905 2.22488C7.7526 1.97887 7.9155 1.77342 8.1333 1.65537C8.2647 1.58148 8.415 1.54003 8.5761 1.54003ZM11.8116 6.74493C11.7279 6.74493 11.6478 6.75304 11.5686 6.77016C11.0952 6.87469 10.7217 7.24506 10.611 7.71004C10.5858 7.85151 10.5723 7.9975 10.5723 8.14618C10.5723 8.41472 10.6164 8.67424 10.6965 8.90223C10.5579 8.804 10.4013 8.73011 10.2303 8.68325C10.1601 8.67154 10.0872 8.66523 10.0134 8.66523C9.3033 8.66523 8.7282 9.24105 8.7282 9.95204C8.7282 10.5225 9.099 11.0064 9.6093 11.1758C9.7218 11.192 9.8379 11.201 9.9549 11.201C10.3113 11.201 10.6497 11.1217 10.9377 10.9856C10.4247 11.8246 9.9945 12.2031 9.4095 12.0643L11.9862 12.6861C11.7063 12.6203 11.4777 12.4256 11.3697 12.1841C11.2212 11.8291 11.1339 11.4425 11.1249 11.0352C11.3625 11.319 11.6586 11.5533 12.0015 11.7237C12.0636 11.7543 12.1284 11.7795 12.1968 11.8003C12.2787 11.8174 12.3642 11.8264 12.4506 11.8264C13.0473 11.8264 13.545 11.4038 13.662 10.8424C13.6872 10.7387 13.7007 10.6315 13.7007 10.5207C13.7007 10.3918 13.6827 10.2683 13.6494 10.1521C13.5441 9.74118 13.2219 9.41677 12.8142 9.30773C12.7116 9.28431 12.6045 9.27169 12.4947 9.27169C12.4497 9.27169 12.4056 9.27349 12.366 9.2789C12.5433 9.08876 12.6954 8.87429 12.8214 8.63459C12.8772 8.53096 12.9213 8.41922 12.9555 8.29126L12.9779 8.19464C12.991 8.12295 12.9978 8.04886 12.9978 7.97317C12.9978 7.40185 12.6126 6.92155 12.087 6.77827C11.9988 6.75665 11.9061 6.74493 11.8116 6.74493ZM5.0994 0C5.4351 0 5.7636 0.0333417 6.0489 0.0919149L6.22485 0.129875L6.3981 0.173917L6.5016 0.200951C6.6087 0.23159 6.7131 0.266733 6.8175 0.304581C6.8571 0.318098 6.8958 0.331615 6.9345 0.346934C7.0359 0.386583 7.1361 0.429237 7.2351 0.474894C7.2711 0.491114 7.3071 0.509136 7.3422 0.526258C7.443 0.57582 7.542 0.627184 7.6392 0.683054C7.6644 0.697472 7.6887 0.712791 7.7355 0.740726C7.893 0.838048 8.0451 0.943479 8.1693 1.05071C8.0451 1.08496 7.9281 1.13632 7.8201 1.2003C7.4979 1.39675 7.2576 1.71574 7.1631 2.10233L7.0839 2.46819C6.5295 2.04736 5.8392 1.79775 5.0904 1.79775C3.267 1.79775 1.7892 3.2774 1.7892 5.10308C1.7892 6.92876 3.267 8.40841 5.0904 8.40841C5.2875 8.40841 5.481 8.39129 5.6484 8.36065L5.5872 8.69227C5.4279 8.71569 5.2659 8.72831 5.0985 8.73011C4.8537 8.72921 4.6143 8.70488 4.4064 8.66163L4.1598 9.87635C4.4631 9.93672 4.7763 9.96916 5.0985 9.97006C5.1525 9.97096 5.2056 9.96466 5.2605 9.96285L5.202 10.2053C5.1669 10.2062 5.1327 10.2107 5.0967 10.2107C4.761 10.2098 4.4334 10.1764 4.1481 10.1187L3.97215 10.0808L3.7989 10.0367C3.7647 10.0277 3.7296 10.0196 3.6954 10.0097C3.5883 9.97907 3.4839 9.94393 3.3795 9.90608C3.3399 9.89166 3.3012 9.87815 3.2625 9.86283C3.1611 9.82318 3.0609 9.78053 2.9619 9.73487C2.9259 9.71865 2.8899 9.70063 2.8548 9.6835C2.754 9.63394 2.655 9.58258 2.5578 9.52671C2.5326 9.51229 2.5092 9.49697 2.4615 9.46904C1.3617 8.8004 0.5337 7.72716 0.1764 6.41872C0.1692 6.39349 0.1629 6.36736 0.1566 6.34123C0.1305 6.23309 0.1053 6.12496 0.0855 6.01412C0.0738 5.95104 0.0657 5.88796 0.0567 5.82488C0.0441 5.74288 0.0315 5.65998 0.0234 5.57617C0.009 5.42118 0 5.26348 0 5.10488C0 4.94628 0.009 4.78859 0.0234 4.63359C0.0315 4.54979 0.045 4.46778 0.0567 4.38488C0.0657 4.3218 0.0738 4.25782 0.0855 4.19564C0.1053 4.08481 0.1296 3.97667 0.1566 3.86854C0.1638 3.8424 0.1701 3.81627 0.1854 3.75499C0.5337 2.4835 1.3617 1.40936 2.4849 0.72811C2.5092 0.712791 2.5335 0.697472 2.5587 0.683054C2.6559 0.627184 2.7549 0.57582 2.8557 0.526258C2.8917 0.509136 2.9268 0.491114 2.9628 0.474894C3.0612 0.429237 3.1614 0.386583 3.2634 0.346934C3.3021 0.332516 3.3417 0.318999 3.3804 0.304581C3.4839 0.266733 3.5892 0.23159 3.6963 0.200951L3.7998 0.173917C3.915 0.143279 4.0311 0.114443 4.149 0.0919149L4.1175 0.0973217C4.4352 0.0333417 4.7637 0 5.0994 0ZM1.6767 6.28265L0.5247 6.73862C0.7299 7.31084 1.0377 7.83349 1.4229 8.27775L2.3733 7.48476C2.0745 7.14323 1.8387 6.74493 1.6767 6.28265ZM5.7951 7.7569L5.7348 8.08941C5.6178 8.11735 5.499 8.13897 5.3631 8.15429L5.346 7.83529C5.5062 7.82178 5.6628 7.79294 5.7951 7.7569ZM3.8097 7.52441C4.0815 7.67039 4.3812 7.77131 4.7124 7.81907L4.68225 7.97121L4.6674 8.13537L4.65075 8.13191C4.58432 8.12298 4.51818 8.11111 4.45295 8.09719L4.6674 8.13537C4.58741 8.1239 4.50914 8.10962 4.43253 8.09265C4.37697 8.0805 4.32212 8.06677 4.26805 8.05162C4.24497 8.04496 4.22168 8.03812 4.19853 8.03103C4.15557 8.01808 4.1135 8.00415 4.07201 7.98939C4.05208 7.98207 4.03186 7.97463 4.01176 7.967C3.97502 7.9532 3.93914 7.93871 3.90379 7.9236C3.87818 7.91266 3.85235 7.90124 3.82673 7.8895C3.77499 7.86535 3.72461 7.84013 3.6756 7.81367L3.75319 7.85457C3.72161 7.83905 3.69034 7.82301 3.6594 7.80646L3.74475 7.66333L3.8097 7.52441ZM2.7153 6.45657L2.7225 6.46859L2.7234 6.46919L2.7153 6.45657C2.78612 6.57976 2.86389 6.69495 2.94847 6.80243C3.0559 6.93793 3.17616 7.06372 3.3084 7.17837L3.201 7.29837L3.0996 7.41987C2.8377 7.19279 2.6181 6.92606 2.4462 6.62869L2.448 6.62703L2.439 6.61337L2.592 6.53542L2.7153 6.45657ZM2.0457 4.93547L2.3634 4.95259C2.3607 5.00215 2.3598 5.05352 2.3598 5.10398V5.10578C2.3598 5.38243 2.4003 5.64916 2.4768 5.90148L2.3265 5.93542L2.1717 5.99339C2.15478 5.93734 2.13941 5.88057 2.12564 5.82314L2.1663 5.97267C2.0871 5.71314 2.0412 5.41487 2.0412 5.10668V5.10398C2.0412 5.04751 2.0427 4.99134 2.0457 4.93547ZM2.6262 3.30173L2.6208 3.31074L2.8791 3.49817L2.8845 3.49096C2.7036 3.73877 2.5632 4.01722 2.4687 4.33802L2.322 4.28335L2.1618 4.24791L2.16825 4.22703C2.22804 4.02497 2.30839 3.83184 2.40546 3.65188C2.47154 3.52867 2.5452 3.41239 2.6262 3.30173ZM1.4274 1.92391C1.0377 2.37447 0.729 2.89712 0.5139 3.50358L1.6848 3.90098C1.8387 3.46393 2.0745 3.06563 2.3697 2.72771L1.4229 1.93021L1.4274 1.92391ZM6.3783 2.3213C6.6078 2.43214 6.822 2.57091 7.011 2.72861L6.93 3.07284C6.7275 2.88721 6.4962 2.73131 6.228 2.60516L6.3783 2.3213ZM3.9816 2.25372L4.0545 2.44205L4.0977 2.55199C3.7908 2.67454 3.5271 2.83855 3.2967 3.0404L3.15525 2.87309L3.0879 2.798C3.26664 2.64102 3.46416 2.50504 3.68322 2.39067C3.71443 2.37399 3.74598 2.35816 3.77784 2.34287C3.84403 2.31147 3.91184 2.28166 3.9816 2.25372ZM5.1039 2.04285C5.16559 2.04285 5.22859 2.04482 5.29053 2.04858L5.1021 2.04285C5.18259 2.04285 5.26228 2.04601 5.34114 2.05218C5.39297 2.05607 5.44344 2.06125 5.49274 2.06756C5.49996 2.06876 5.5079 2.06981 5.51583 2.07089L5.53081 2.07269C5.58815 2.0808 5.64373 2.09044 5.697 2.10143L5.652 2.41682C5.59705 2.40571 5.5416 2.39622 5.48562 2.38842C5.47366 2.38669 5.46105 2.385 5.44835 2.3834L5.48562 2.38842C5.42897 2.38052 5.3718 2.37434 5.31409 2.36993L5.44835 2.3834C5.39197 2.37628 5.33386 2.37083 5.27472 2.36719L5.1012 2.36185H5.0994L5.06059 2.36061L5.0184 2.36005C4.9059 2.36005 4.7961 2.37086 4.6908 2.39249L4.67475 2.25357L4.6422 2.0771L4.6557 2.07529C4.72012 2.06352 4.79005 2.05436 4.86286 2.04865C4.91895 2.04408 4.97518 2.04195 5.0319 2.04195C5.0571 2.04195 5.0805 2.04195 5.1039 2.04285ZM5.0985 0.238799C4.7763 0.2397 4.4631 0.27214 4.1904 0.327109L4.3839 1.55084C4.6143 1.50398 4.8537 1.47875 5.0985 1.47875C5.3433 1.47875 5.5827 1.50398 5.7906 1.54723L6.0372 0.332516C5.7339 0.27214 5.4198 0.2397 5.0985 0.238799Z" fill="var(--fill-0, white)"/>
</svg>
